<mxfile host="app.diagrams.net" modified="2022-11-03T18:09:15.561Z" agent="5.0 (Macintosh; Intel Mac OS X 10_15_7) AppleWebKit/537.36 (KHTML, like Gecko) Chrome/107.0.0.0 Safari/537.36" etag="6lbknMPKljQA1GM64yKZ" version="20.5.1" type="github">
  <diagram id="C5RBs43oDa-KdzZeNtuy" name="Page-1">
    <mxGraphModel dx="2066" dy="1097" grid="1" gridSize="10" guides="1" tooltips="1" connect="1" arrows="1" fold="1" page="1" pageScale="1" pageWidth="827" pageHeight="1169" background="#DAD2D8" math="0" shadow="0">
      <root>
        <mxCell id="WIyWlLk6GJQsqaUBKTNV-0" />
        <mxCell id="WIyWlLk6GJQsqaUBKTNV-1" parent="WIyWlLk6GJQsqaUBKTNV-0" />
        <mxCell id="WIyWlLk6GJQsqaUBKTNV-3" value="book a flight" style="rounded=1;whiteSpace=wrap;html=1;fontSize=12;glass=0;strokeWidth=1;shadow=0;fillColor=#FAE5C7;strokeColor=#0F8B8D;fontColor=#143642;" parent="WIyWlLk6GJQsqaUBKTNV-1" vertex="1">
          <mxGeometry x="30" y="100" width="120" height="40" as="geometry" />
        </mxCell>
        <mxCell id="eK6FQkArAcEVJqSyKkLl-17" value="" style="edgeStyle=orthogonalEdgeStyle;rounded=0;orthogonalLoop=1;jettySize=auto;html=1;labelBackgroundColor=#DAD2D8;strokeColor=#A8201A;fontColor=#143642;" parent="WIyWlLk6GJQsqaUBKTNV-1" source="eK6FQkArAcEVJqSyKkLl-1" target="eK6FQkArAcEVJqSyKkLl-16" edge="1">
          <mxGeometry relative="1" as="geometry" />
        </mxCell>
        <mxCell id="eK6FQkArAcEVJqSyKkLl-1" value="arrival airport" style="rounded=0;whiteSpace=wrap;html=1;fillColor=#FAE5C7;strokeColor=#0F8B8D;fontColor=#143642;" parent="WIyWlLk6GJQsqaUBKTNV-1" vertex="1">
          <mxGeometry x="340" y="100" width="120" height="40" as="geometry" />
        </mxCell>
        <mxCell id="eK6FQkArAcEVJqSyKkLl-4" value="" style="endArrow=classic;html=1;rounded=0;entryX=0;entryY=0.5;entryDx=0;entryDy=0;labelBackgroundColor=#DAD2D8;strokeColor=#A8201A;fontColor=#143642;" parent="WIyWlLk6GJQsqaUBKTNV-1" target="eK6FQkArAcEVJqSyKkLl-1" edge="1">
          <mxGeometry width="50" height="50" relative="1" as="geometry">
            <mxPoint x="305" y="119.5" as="sourcePoint" />
            <mxPoint x="335" y="119.5" as="targetPoint" />
            <Array as="points">
              <mxPoint x="305" y="119.5" />
            </Array>
          </mxGeometry>
        </mxCell>
        <mxCell id="eK6FQkArAcEVJqSyKkLl-20" value="" style="edgeStyle=orthogonalEdgeStyle;rounded=0;orthogonalLoop=1;jettySize=auto;html=1;labelBackgroundColor=#DAD2D8;strokeColor=#A8201A;fontColor=#143642;" parent="WIyWlLk6GJQsqaUBKTNV-1" source="eK6FQkArAcEVJqSyKkLl-16" target="eK6FQkArAcEVJqSyKkLl-18" edge="1">
          <mxGeometry relative="1" as="geometry" />
        </mxCell>
        <mxCell id="eK6FQkArAcEVJqSyKkLl-16" value="departure date" style="rounded=0;whiteSpace=wrap;html=1;fillColor=#FAE5C7;strokeColor=#0F8B8D;fontColor=#143642;" parent="WIyWlLk6GJQsqaUBKTNV-1" vertex="1">
          <mxGeometry x="540" y="100" width="120" height="40" as="geometry" />
        </mxCell>
        <mxCell id="eK6FQkArAcEVJqSyKkLl-22" value="" style="edgeStyle=orthogonalEdgeStyle;rounded=0;orthogonalLoop=1;jettySize=auto;html=1;labelBackgroundColor=#DAD2D8;strokeColor=#A8201A;fontColor=#143642;" parent="WIyWlLk6GJQsqaUBKTNV-1" source="eK6FQkArAcEVJqSyKkLl-18" target="eK6FQkArAcEVJqSyKkLl-21" edge="1">
          <mxGeometry relative="1" as="geometry" />
        </mxCell>
        <mxCell id="rhOe6zKHTogy2aYQI5L2-4" value="" style="edgeStyle=orthogonalEdgeStyle;rounded=0;orthogonalLoop=1;jettySize=auto;html=1;labelBackgroundColor=#DAD2D8;strokeColor=#A8201A;fontColor=#143642;" parent="WIyWlLk6GJQsqaUBKTNV-1" source="eK6FQkArAcEVJqSyKkLl-18" target="rhOe6zKHTogy2aYQI5L2-3" edge="1">
          <mxGeometry relative="1" as="geometry" />
        </mxCell>
        <mxCell id="eK6FQkArAcEVJqSyKkLl-18" value="return trip?" style="rhombus;whiteSpace=wrap;html=1;rounded=0;fillColor=#FAE5C7;strokeColor=#0F8B8D;fontColor=#143642;" parent="WIyWlLk6GJQsqaUBKTNV-1" vertex="1">
          <mxGeometry x="555" y="160" width="90" height="90" as="geometry" />
        </mxCell>
        <mxCell id="rhOe6zKHTogy2aYQI5L2-7" value="" style="edgeStyle=orthogonalEdgeStyle;rounded=0;orthogonalLoop=1;jettySize=auto;html=1;labelBackgroundColor=#DAD2D8;strokeColor=#A8201A;fontColor=#143642;" parent="WIyWlLk6GJQsqaUBKTNV-1" source="eK6FQkArAcEVJqSyKkLl-21" target="rhOe6zKHTogy2aYQI5L2-6" edge="1">
          <mxGeometry relative="1" as="geometry" />
        </mxCell>
        <mxCell id="eK6FQkArAcEVJqSyKkLl-21" value="return date" style="whiteSpace=wrap;html=1;rounded=0;fillColor=#FAE5C7;strokeColor=#0F8B8D;fontColor=#143642;" parent="WIyWlLk6GJQsqaUBKTNV-1" vertex="1">
          <mxGeometry x="690" y="160" width="120" height="40" as="geometry" />
        </mxCell>
        <mxCell id="rhOe6zKHTogy2aYQI5L2-0" value="yes" style="text;strokeColor=none;fillColor=none;align=left;verticalAlign=middle;spacingLeft=4;spacingRight=4;overflow=hidden;points=[[0,0.5],[1,0.5]];portConstraint=eastwest;rotatable=0;fontColor=#143642;" parent="WIyWlLk6GJQsqaUBKTNV-1" vertex="1">
          <mxGeometry x="630" y="180" width="40" height="20" as="geometry" />
        </mxCell>
        <mxCell id="rhOe6zKHTogy2aYQI5L2-9" value="" style="edgeStyle=orthogonalEdgeStyle;rounded=0;orthogonalLoop=1;jettySize=auto;html=1;labelBackgroundColor=#DAD2D8;strokeColor=#A8201A;fontColor=#143642;" parent="WIyWlLk6GJQsqaUBKTNV-1" source="rhOe6zKHTogy2aYQI5L2-3" target="rhOe6zKHTogy2aYQI5L2-8" edge="1">
          <mxGeometry relative="1" as="geometry" />
        </mxCell>
        <mxCell id="rhOe6zKHTogy2aYQI5L2-3" value="number of passengers" style="whiteSpace=wrap;html=1;rounded=0;fillColor=#FAE5C7;strokeColor=#0F8B8D;fontColor=#143642;" parent="WIyWlLk6GJQsqaUBKTNV-1" vertex="1">
          <mxGeometry x="365" y="162.5" width="120" height="35" as="geometry" />
        </mxCell>
        <mxCell id="rhOe6zKHTogy2aYQI5L2-5" value="no" style="text;strokeColor=none;fillColor=none;align=left;verticalAlign=middle;spacingLeft=4;spacingRight=4;overflow=hidden;points=[[0,0.5],[1,0.5]];portConstraint=eastwest;rotatable=0;fontColor=#143642;" parent="WIyWlLk6GJQsqaUBKTNV-1" vertex="1">
          <mxGeometry x="530" y="180" width="40" height="20" as="geometry" />
        </mxCell>
        <mxCell id="rhOe6zKHTogy2aYQI5L2-11" value="" style="edgeStyle=orthogonalEdgeStyle;rounded=0;orthogonalLoop=1;jettySize=auto;html=1;labelBackgroundColor=#DAD2D8;strokeColor=#A8201A;fontColor=#143642;" parent="WIyWlLk6GJQsqaUBKTNV-1" source="rhOe6zKHTogy2aYQI5L2-6" target="rhOe6zKHTogy2aYQI5L2-10" edge="1">
          <mxGeometry relative="1" as="geometry" />
        </mxCell>
        <mxCell id="rhOe6zKHTogy2aYQI5L2-6" value="number of passengers" style="whiteSpace=wrap;html=1;rounded=0;fillColor=#FAE5C7;strokeColor=#0F8B8D;fontColor=#143642;" parent="WIyWlLk6GJQsqaUBKTNV-1" vertex="1">
          <mxGeometry x="690" y="230" width="120" height="40" as="geometry" />
        </mxCell>
        <mxCell id="rhOe6zKHTogy2aYQI5L2-13" value="" style="edgeStyle=orthogonalEdgeStyle;rounded=0;orthogonalLoop=1;jettySize=auto;html=1;labelBackgroundColor=#DAD2D8;strokeColor=#A8201A;fontColor=#143642;" parent="WIyWlLk6GJQsqaUBKTNV-1" source="rhOe6zKHTogy2aYQI5L2-8" target="rhOe6zKHTogy2aYQI5L2-12" edge="1">
          <mxGeometry relative="1" as="geometry" />
        </mxCell>
        <mxCell id="rhOe6zKHTogy2aYQI5L2-8" value="Search" style="whiteSpace=wrap;html=1;rounded=0;fillColor=#FAE5C7;strokeColor=#0F8B8D;fontColor=#143642;" parent="WIyWlLk6GJQsqaUBKTNV-1" vertex="1">
          <mxGeometry x="245" y="163.75" width="90" height="32.5" as="geometry" />
        </mxCell>
        <mxCell id="rhOe6zKHTogy2aYQI5L2-15" value="" style="edgeStyle=orthogonalEdgeStyle;rounded=0;orthogonalLoop=1;jettySize=auto;html=1;labelBackgroundColor=#DAD2D8;strokeColor=#A8201A;fontColor=#143642;" parent="WIyWlLk6GJQsqaUBKTNV-1" source="rhOe6zKHTogy2aYQI5L2-10" target="rhOe6zKHTogy2aYQI5L2-14" edge="1">
          <mxGeometry relative="1" as="geometry" />
        </mxCell>
        <mxCell id="rhOe6zKHTogy2aYQI5L2-10" value="Search" style="whiteSpace=wrap;html=1;rounded=0;fillColor=#FAE5C7;strokeColor=#0F8B8D;fontColor=#143642;" parent="WIyWlLk6GJQsqaUBKTNV-1" vertex="1">
          <mxGeometry x="705" y="310" width="90" height="40" as="geometry" />
        </mxCell>
        <mxCell id="rhOe6zKHTogy2aYQI5L2-19" value="" style="edgeStyle=orthogonalEdgeStyle;rounded=0;orthogonalLoop=1;jettySize=auto;html=1;labelBackgroundColor=#DAD2D8;strokeColor=#A8201A;fontColor=#143642;" parent="WIyWlLk6GJQsqaUBKTNV-1" source="rhOe6zKHTogy2aYQI5L2-12" target="rhOe6zKHTogy2aYQI5L2-18" edge="1">
          <mxGeometry relative="1" as="geometry" />
        </mxCell>
        <mxCell id="rhOe6zKHTogy2aYQI5L2-12" value="Select flight" style="whiteSpace=wrap;html=1;rounded=0;fillColor=#FAE5C7;strokeColor=#0F8B8D;fontColor=#143642;" parent="WIyWlLk6GJQsqaUBKTNV-1" vertex="1">
          <mxGeometry x="105" y="163.75" width="90" height="32.5" as="geometry" />
        </mxCell>
        <mxCell id="rhOe6zKHTogy2aYQI5L2-17" value="" style="edgeStyle=orthogonalEdgeStyle;rounded=0;orthogonalLoop=1;jettySize=auto;html=1;labelBackgroundColor=#DAD2D8;strokeColor=#A8201A;fontColor=#143642;" parent="WIyWlLk6GJQsqaUBKTNV-1" source="rhOe6zKHTogy2aYQI5L2-14" target="rhOe6zKHTogy2aYQI5L2-16" edge="1">
          <mxGeometry relative="1" as="geometry" />
        </mxCell>
        <mxCell id="rhOe6zKHTogy2aYQI5L2-14" value="Select departure flight" style="whiteSpace=wrap;html=1;rounded=0;fillColor=#FAE5C7;strokeColor=#0F8B8D;fontColor=#143642;" parent="WIyWlLk6GJQsqaUBKTNV-1" vertex="1">
          <mxGeometry x="705" y="380" width="90" height="40" as="geometry" />
        </mxCell>
        <mxCell id="rhOe6zKHTogy2aYQI5L2-35" value="" style="edgeStyle=orthogonalEdgeStyle;rounded=0;orthogonalLoop=1;jettySize=auto;html=1;labelBackgroundColor=#DAD2D8;strokeColor=#A8201A;fontColor=#143642;" parent="WIyWlLk6GJQsqaUBKTNV-1" source="rhOe6zKHTogy2aYQI5L2-16" target="rhOe6zKHTogy2aYQI5L2-34" edge="1">
          <mxGeometry relative="1" as="geometry" />
        </mxCell>
        <mxCell id="rhOe6zKHTogy2aYQI5L2-16" value="Select return flight" style="whiteSpace=wrap;html=1;rounded=0;fillColor=#FAE5C7;strokeColor=#0F8B8D;fontColor=#143642;" parent="WIyWlLk6GJQsqaUBKTNV-1" vertex="1">
          <mxGeometry x="705" y="447.5" width="90" height="40" as="geometry" />
        </mxCell>
        <mxCell id="rhOe6zKHTogy2aYQI5L2-21" value="" style="edgeStyle=orthogonalEdgeStyle;rounded=0;orthogonalLoop=1;jettySize=auto;html=1;labelBackgroundColor=#DAD2D8;strokeColor=#A8201A;fontColor=#143642;" parent="WIyWlLk6GJQsqaUBKTNV-1" source="rhOe6zKHTogy2aYQI5L2-18" target="rhOe6zKHTogy2aYQI5L2-20" edge="1">
          <mxGeometry relative="1" as="geometry" />
        </mxCell>
        <mxCell id="rhOe6zKHTogy2aYQI5L2-27" value="" style="edgeStyle=orthogonalEdgeStyle;rounded=0;orthogonalLoop=1;jettySize=auto;html=1;labelBackgroundColor=#DAD2D8;strokeColor=#A8201A;fontColor=#143642;" parent="WIyWlLk6GJQsqaUBKTNV-1" source="rhOe6zKHTogy2aYQI5L2-18" target="rhOe6zKHTogy2aYQI5L2-26" edge="1">
          <mxGeometry relative="1" as="geometry">
            <Array as="points">
              <mxPoint x="39" y="300" />
              <mxPoint x="39" y="300" />
            </Array>
          </mxGeometry>
        </mxCell>
        <mxCell id="rhOe6zKHTogy2aYQI5L2-18" value="1 small bag?" style="rhombus;whiteSpace=wrap;html=1;rounded=0;fillColor=#FAE5C7;strokeColor=#0F8B8D;fontColor=#143642;" parent="WIyWlLk6GJQsqaUBKTNV-1" vertex="1">
          <mxGeometry y="210" width="80" height="80" as="geometry" />
        </mxCell>
        <mxCell id="rhOe6zKHTogy2aYQI5L2-54" value="" style="edgeStyle=orthogonalEdgeStyle;rounded=0;orthogonalLoop=1;jettySize=auto;html=1;labelBackgroundColor=#DAD2D8;strokeColor=#A8201A;fontColor=#143642;" parent="WIyWlLk6GJQsqaUBKTNV-1" source="rhOe6zKHTogy2aYQI5L2-20" target="rhOe6zKHTogy2aYQI5L2-53" edge="1">
          <mxGeometry relative="1" as="geometry" />
        </mxCell>
        <mxCell id="rhOe6zKHTogy2aYQI5L2-20" value="value fare" style="whiteSpace=wrap;html=1;rounded=0;fillColor=#FAE5C7;strokeColor=#0F8B8D;fontColor=#143642;" parent="WIyWlLk6GJQsqaUBKTNV-1" vertex="1">
          <mxGeometry x="112.5" y="233.12" width="120" height="33.75" as="geometry" />
        </mxCell>
        <mxCell id="rhOe6zKHTogy2aYQI5L2-22" value="yes" style="text;strokeColor=none;fillColor=none;align=left;verticalAlign=middle;spacingLeft=4;spacingRight=4;overflow=hidden;points=[[0,0.5],[1,0.5]];portConstraint=eastwest;rotatable=0;fontColor=#143642;" parent="WIyWlLk6GJQsqaUBKTNV-1" vertex="1">
          <mxGeometry x="70" y="230" width="40" height="20" as="geometry" />
        </mxCell>
        <mxCell id="rhOe6zKHTogy2aYQI5L2-23" value="no" style="text;strokeColor=none;fillColor=none;align=left;verticalAlign=middle;spacingLeft=4;spacingRight=4;overflow=hidden;points=[[0,0.5],[1,0.5]];portConstraint=eastwest;rotatable=0;fontColor=#143642;" parent="WIyWlLk6GJQsqaUBKTNV-1" vertex="1">
          <mxGeometry x="6.25" y="277.5" width="40" height="20" as="geometry" />
        </mxCell>
        <mxCell id="rhOe6zKHTogy2aYQI5L2-29" value="" style="edgeStyle=orthogonalEdgeStyle;rounded=0;orthogonalLoop=1;jettySize=auto;html=1;labelBackgroundColor=#DAD2D8;strokeColor=#A8201A;fontColor=#143642;" parent="WIyWlLk6GJQsqaUBKTNV-1" source="rhOe6zKHTogy2aYQI5L2-26" target="rhOe6zKHTogy2aYQI5L2-28" edge="1">
          <mxGeometry relative="1" as="geometry" />
        </mxCell>
        <mxCell id="rhOe6zKHTogy2aYQI5L2-32" value="" style="edgeStyle=orthogonalEdgeStyle;rounded=0;orthogonalLoop=1;jettySize=auto;html=1;labelBackgroundColor=#DAD2D8;strokeColor=#A8201A;fontColor=#143642;" parent="WIyWlLk6GJQsqaUBKTNV-1" source="rhOe6zKHTogy2aYQI5L2-26" target="rhOe6zKHTogy2aYQI5L2-31" edge="1">
          <mxGeometry relative="1" as="geometry" />
        </mxCell>
        <mxCell id="rhOe6zKHTogy2aYQI5L2-26" value="2 small bags?" style="rhombus;whiteSpace=wrap;html=1;rounded=0;fillColor=#FAE5C7;strokeColor=#0F8B8D;fontColor=#143642;" parent="WIyWlLk6GJQsqaUBKTNV-1" vertex="1">
          <mxGeometry y="312.5" width="77.5" height="87.5" as="geometry" />
        </mxCell>
        <mxCell id="rhOe6zKHTogy2aYQI5L2-73" value="" style="edgeStyle=orthogonalEdgeStyle;rounded=0;orthogonalLoop=1;jettySize=auto;html=1;entryX=0;entryY=0.5;entryDx=0;entryDy=0;labelBackgroundColor=#DAD2D8;strokeColor=#A8201A;fontColor=#143642;" parent="WIyWlLk6GJQsqaUBKTNV-1" source="rhOe6zKHTogy2aYQI5L2-28" target="rhOe6zKHTogy2aYQI5L2-66" edge="1">
          <mxGeometry relative="1" as="geometry">
            <mxPoint x="310" y="728" as="targetPoint" />
            <Array as="points">
              <mxPoint x="173" y="415" />
            </Array>
          </mxGeometry>
        </mxCell>
        <mxCell id="rhOe6zKHTogy2aYQI5L2-28" value="Regular fare" style="whiteSpace=wrap;html=1;rounded=0;fillColor=#FAE5C7;strokeColor=#0F8B8D;fontColor=#143642;" parent="WIyWlLk6GJQsqaUBKTNV-1" vertex="1">
          <mxGeometry x="113.75" y="340" width="120" height="35" as="geometry" />
        </mxCell>
        <mxCell id="rhOe6zKHTogy2aYQI5L2-30" value="yes" style="text;strokeColor=none;fillColor=none;align=left;verticalAlign=middle;spacingLeft=4;spacingRight=4;overflow=hidden;points=[[0,0.5],[1,0.5]];portConstraint=eastwest;rotatable=0;fontColor=#143642;" parent="WIyWlLk6GJQsqaUBKTNV-1" vertex="1">
          <mxGeometry x="65" y="330" width="40" height="20" as="geometry" />
        </mxCell>
        <mxCell id="rhOe6zKHTogy2aYQI5L2-106" value="" style="edgeStyle=orthogonalEdgeStyle;rounded=0;orthogonalLoop=1;jettySize=auto;html=1;labelBackgroundColor=#DAD2D8;strokeColor=#A8201A;fontColor=#143642;" parent="WIyWlLk6GJQsqaUBKTNV-1" source="rhOe6zKHTogy2aYQI5L2-31" target="rhOe6zKHTogy2aYQI5L2-79" edge="1">
          <mxGeometry relative="1" as="geometry" />
        </mxCell>
        <mxCell id="rhOe6zKHTogy2aYQI5L2-31" value="Plus fare" style="whiteSpace=wrap;html=1;rounded=0;fillColor=#FAE5C7;strokeColor=#0F8B8D;fontColor=#143642;" parent="WIyWlLk6GJQsqaUBKTNV-1" vertex="1">
          <mxGeometry y="440" width="80" height="20" as="geometry" />
        </mxCell>
        <mxCell id="rhOe6zKHTogy2aYQI5L2-33" value="no" style="text;strokeColor=none;fillColor=none;align=left;verticalAlign=middle;spacingLeft=4;spacingRight=4;overflow=hidden;points=[[0,0.5],[1,0.5]];portConstraint=eastwest;rotatable=0;fontColor=#143642;" parent="WIyWlLk6GJQsqaUBKTNV-1" vertex="1">
          <mxGeometry x="10" y="390" width="40" height="20" as="geometry" />
        </mxCell>
        <mxCell id="rhOe6zKHTogy2aYQI5L2-37" value="" style="edgeStyle=orthogonalEdgeStyle;rounded=0;orthogonalLoop=1;jettySize=auto;html=1;labelBackgroundColor=#DAD2D8;strokeColor=#A8201A;fontColor=#143642;" parent="WIyWlLk6GJQsqaUBKTNV-1" source="rhOe6zKHTogy2aYQI5L2-34" target="rhOe6zKHTogy2aYQI5L2-36" edge="1">
          <mxGeometry relative="1" as="geometry" />
        </mxCell>
        <mxCell id="rhOe6zKHTogy2aYQI5L2-41" value="" style="edgeStyle=orthogonalEdgeStyle;rounded=0;orthogonalLoop=1;jettySize=auto;html=1;labelBackgroundColor=#DAD2D8;strokeColor=#A8201A;fontColor=#143642;" parent="WIyWlLk6GJQsqaUBKTNV-1" source="rhOe6zKHTogy2aYQI5L2-34" target="rhOe6zKHTogy2aYQI5L2-40" edge="1">
          <mxGeometry relative="1" as="geometry" />
        </mxCell>
        <mxCell id="rhOe6zKHTogy2aYQI5L2-34" value="1 small bag?" style="rhombus;whiteSpace=wrap;html=1;rounded=0;fillColor=#FAE5C7;strokeColor=#0F8B8D;fontColor=#143642;" parent="WIyWlLk6GJQsqaUBKTNV-1" vertex="1">
          <mxGeometry x="710" y="532.5" width="80" height="80" as="geometry" />
        </mxCell>
        <mxCell id="rhOe6zKHTogy2aYQI5L2-36" value="value fare" style="whiteSpace=wrap;html=1;rounded=0;fillColor=#FAE5C7;strokeColor=#0F8B8D;fontColor=#143642;" parent="WIyWlLk6GJQsqaUBKTNV-1" vertex="1">
          <mxGeometry x="540" y="502.5" width="120" height="47.5" as="geometry" />
        </mxCell>
        <mxCell id="rhOe6zKHTogy2aYQI5L2-43" value="" style="edgeStyle=orthogonalEdgeStyle;rounded=0;orthogonalLoop=1;jettySize=auto;html=1;labelBackgroundColor=#DAD2D8;strokeColor=#A8201A;fontColor=#143642;" parent="WIyWlLk6GJQsqaUBKTNV-1" source="rhOe6zKHTogy2aYQI5L2-40" target="rhOe6zKHTogy2aYQI5L2-42" edge="1">
          <mxGeometry relative="1" as="geometry" />
        </mxCell>
        <mxCell id="rhOe6zKHTogy2aYQI5L2-46" value="" style="edgeStyle=orthogonalEdgeStyle;rounded=0;orthogonalLoop=1;jettySize=auto;html=1;labelBackgroundColor=#DAD2D8;strokeColor=#A8201A;fontColor=#143642;" parent="WIyWlLk6GJQsqaUBKTNV-1" source="rhOe6zKHTogy2aYQI5L2-40" target="rhOe6zKHTogy2aYQI5L2-45" edge="1">
          <mxGeometry relative="1" as="geometry" />
        </mxCell>
        <mxCell id="rhOe6zKHTogy2aYQI5L2-40" value="2 small bags?" style="rhombus;whiteSpace=wrap;html=1;rounded=0;fillColor=#FAE5C7;strokeColor=#0F8B8D;fontColor=#143642;" parent="WIyWlLk6GJQsqaUBKTNV-1" vertex="1">
          <mxGeometry x="705" y="656.25" width="90" height="90" as="geometry" />
        </mxCell>
        <mxCell id="rhOe6zKHTogy2aYQI5L2-42" value="Regular fare" style="whiteSpace=wrap;html=1;rounded=0;fillColor=#FAE5C7;strokeColor=#0F8B8D;fontColor=#143642;" parent="WIyWlLk6GJQsqaUBKTNV-1" vertex="1">
          <mxGeometry x="550" y="685" width="120" height="32.5" as="geometry" />
        </mxCell>
        <mxCell id="rhOe6zKHTogy2aYQI5L2-45" value="Plus fare" style="whiteSpace=wrap;html=1;rounded=0;fillColor=#FAE5C7;strokeColor=#0F8B8D;fontColor=#143642;" parent="WIyWlLk6GJQsqaUBKTNV-1" vertex="1">
          <mxGeometry x="690" y="770" width="120" height="30" as="geometry" />
        </mxCell>
        <mxCell id="rhOe6zKHTogy2aYQI5L2-47" value="yes" style="text;strokeColor=none;fillColor=none;align=left;verticalAlign=middle;spacingLeft=4;spacingRight=4;overflow=hidden;points=[[0,0.5],[1,0.5]];portConstraint=eastwest;rotatable=0;fontColor=#143642;" parent="WIyWlLk6GJQsqaUBKTNV-1" vertex="1">
          <mxGeometry x="690" y="546.26" width="40" height="20" as="geometry" />
        </mxCell>
        <mxCell id="rhOe6zKHTogy2aYQI5L2-48" value="no" style="text;strokeColor=none;fillColor=none;align=left;verticalAlign=middle;spacingLeft=4;spacingRight=4;overflow=hidden;points=[[0,0.5],[1,0.5]];portConstraint=eastwest;rotatable=0;fontColor=#143642;" parent="WIyWlLk6GJQsqaUBKTNV-1" vertex="1">
          <mxGeometry x="755" y="605" width="40" height="20" as="geometry" />
        </mxCell>
        <mxCell id="rhOe6zKHTogy2aYQI5L2-49" value="yes" style="text;strokeColor=none;fillColor=none;align=left;verticalAlign=middle;spacingLeft=4;spacingRight=4;overflow=hidden;points=[[0,0.5],[1,0.5]];portConstraint=eastwest;rotatable=0;fontColor=#143642;" parent="WIyWlLk6GJQsqaUBKTNV-1" vertex="1">
          <mxGeometry x="680" y="680" width="40" height="20" as="geometry" />
        </mxCell>
        <mxCell id="rhOe6zKHTogy2aYQI5L2-50" value="no" style="text;strokeColor=none;fillColor=none;align=left;verticalAlign=middle;spacingLeft=4;spacingRight=4;overflow=hidden;points=[[0,0.5],[1,0.5]];portConstraint=eastwest;rotatable=0;fontColor=#143642;" parent="WIyWlLk6GJQsqaUBKTNV-1" vertex="1">
          <mxGeometry x="710" y="730" width="40" height="20" as="geometry" />
        </mxCell>
        <mxCell id="rhOe6zKHTogy2aYQI5L2-56" value="" style="edgeStyle=orthogonalEdgeStyle;rounded=0;orthogonalLoop=1;jettySize=auto;html=1;labelBackgroundColor=#DAD2D8;strokeColor=#A8201A;fontColor=#143642;" parent="WIyWlLk6GJQsqaUBKTNV-1" source="rhOe6zKHTogy2aYQI5L2-53" target="rhOe6zKHTogy2aYQI5L2-55" edge="1">
          <mxGeometry relative="1" as="geometry" />
        </mxCell>
        <mxCell id="rhOe6zKHTogy2aYQI5L2-58" value="" style="edgeStyle=orthogonalEdgeStyle;rounded=0;orthogonalLoop=1;jettySize=auto;html=1;labelBackgroundColor=#DAD2D8;strokeColor=#A8201A;fontColor=#143642;" parent="WIyWlLk6GJQsqaUBKTNV-1" source="rhOe6zKHTogy2aYQI5L2-53" target="rhOe6zKHTogy2aYQI5L2-57" edge="1">
          <mxGeometry relative="1" as="geometry" />
        </mxCell>
        <mxCell id="rhOe6zKHTogy2aYQI5L2-53" value="reserve seat?" style="rhombus;whiteSpace=wrap;html=1;rounded=0;fillColor=#FAE5C7;strokeColor=#0F8B8D;fontColor=#143642;" parent="WIyWlLk6GJQsqaUBKTNV-1" vertex="1">
          <mxGeometry x="260" y="209.995" width="80" height="80" as="geometry" />
        </mxCell>
        <mxCell id="rhOe6zKHTogy2aYQI5L2-62" value="" style="edgeStyle=orthogonalEdgeStyle;rounded=0;orthogonalLoop=1;jettySize=auto;html=1;labelBackgroundColor=#DAD2D8;strokeColor=#A8201A;fontColor=#143642;" parent="WIyWlLk6GJQsqaUBKTNV-1" source="rhOe6zKHTogy2aYQI5L2-55" target="rhOe6zKHTogy2aYQI5L2-61" edge="1">
          <mxGeometry relative="1" as="geometry" />
        </mxCell>
        <mxCell id="rhOe6zKHTogy2aYQI5L2-55" value="select seat" style="rounded=0;whiteSpace=wrap;html=1;fillColor=#FAE5C7;strokeColor=#0F8B8D;fontColor=#143642;" parent="WIyWlLk6GJQsqaUBKTNV-1" vertex="1">
          <mxGeometry x="365" y="234.99" width="120" height="30" as="geometry" />
        </mxCell>
        <mxCell id="rhOe6zKHTogy2aYQI5L2-129" value="" style="edgeStyle=orthogonalEdgeStyle;rounded=0;orthogonalLoop=1;jettySize=auto;html=1;labelBackgroundColor=#DAD2D8;strokeColor=#A8201A;fontColor=#143642;entryX=0.644;entryY=1;entryDx=0;entryDy=0;entryPerimeter=0;exitX=0.25;exitY=1;exitDx=0;exitDy=0;" parent="WIyWlLk6GJQsqaUBKTNV-1" source="rhOe6zKHTogy2aYQI5L2-57" target="rhOe6zKHTogy2aYQI5L2-158" edge="1">
          <mxGeometry relative="1" as="geometry">
            <mxPoint x="260" y="370" as="sourcePoint" />
            <mxPoint x="130" y="910" as="targetPoint" />
            <Array as="points">
              <mxPoint x="278" y="960" />
              <mxPoint x="131" y="960" />
            </Array>
          </mxGeometry>
        </mxCell>
        <mxCell id="rhOe6zKHTogy2aYQI5L2-57" value="check out" style="whiteSpace=wrap;html=1;rounded=0;fillColor=#FAE5C7;strokeColor=#0F8B8D;fontColor=#143642;" parent="WIyWlLk6GJQsqaUBKTNV-1" vertex="1">
          <mxGeometry x="255" y="330" width="90" height="20" as="geometry" />
        </mxCell>
        <mxCell id="rhOe6zKHTogy2aYQI5L2-59" value="no" style="text;strokeColor=none;fillColor=none;align=left;verticalAlign=middle;spacingLeft=4;spacingRight=4;overflow=hidden;points=[[0,0.5],[1,0.5]];portConstraint=eastwest;rotatable=0;fontColor=#143642;" parent="WIyWlLk6GJQsqaUBKTNV-1" vertex="1">
          <mxGeometry x="267.5" y="280" width="40" height="20" as="geometry" />
        </mxCell>
        <mxCell id="rhOe6zKHTogy2aYQI5L2-60" value="yes" style="text;strokeColor=none;fillColor=none;align=left;verticalAlign=middle;spacingLeft=4;spacingRight=4;overflow=hidden;points=[[0,0.5],[1,0.5]];portConstraint=eastwest;rotatable=0;fontColor=#143642;" parent="WIyWlLk6GJQsqaUBKTNV-1" vertex="1">
          <mxGeometry x="325" y="220" width="40" height="20" as="geometry" />
        </mxCell>
        <mxCell id="rhOe6zKHTogy2aYQI5L2-130" value="" style="edgeStyle=orthogonalEdgeStyle;rounded=0;orthogonalLoop=1;jettySize=auto;html=1;labelBackgroundColor=#DAD2D8;strokeColor=#A8201A;fontColor=#143642;entryX=0.75;entryY=1;entryDx=0;entryDy=0;" parent="WIyWlLk6GJQsqaUBKTNV-1" source="rhOe6zKHTogy2aYQI5L2-61" target="rhOe6zKHTogy2aYQI5L2-158" edge="1">
          <mxGeometry relative="1" as="geometry">
            <mxPoint x="170" y="1020" as="targetPoint" />
            <Array as="points">
              <mxPoint x="550" y="980" />
              <mxPoint x="142" y="980" />
            </Array>
          </mxGeometry>
        </mxCell>
        <mxCell id="rhOe6zKHTogy2aYQI5L2-61" value="check-out" style="rounded=0;whiteSpace=wrap;html=1;fillColor=#FAE5C7;strokeColor=#0F8B8D;fontColor=#143642;" parent="WIyWlLk6GJQsqaUBKTNV-1" vertex="1">
          <mxGeometry x="495" y="275" width="110" height="25" as="geometry" />
        </mxCell>
        <mxCell id="rhOe6zKHTogy2aYQI5L2-64" value="" style="edgeStyle=orthogonalEdgeStyle;rounded=0;orthogonalLoop=1;jettySize=auto;html=1;labelBackgroundColor=#DAD2D8;strokeColor=#A8201A;fontColor=#143642;" parent="WIyWlLk6GJQsqaUBKTNV-1" source="rhOe6zKHTogy2aYQI5L2-66" target="rhOe6zKHTogy2aYQI5L2-68" edge="1">
          <mxGeometry relative="1" as="geometry" />
        </mxCell>
        <mxCell id="rhOe6zKHTogy2aYQI5L2-65" value="" style="edgeStyle=orthogonalEdgeStyle;rounded=0;orthogonalLoop=1;jettySize=auto;html=1;labelBackgroundColor=#DAD2D8;strokeColor=#A8201A;fontColor=#143642;" parent="WIyWlLk6GJQsqaUBKTNV-1" source="rhOe6zKHTogy2aYQI5L2-66" target="rhOe6zKHTogy2aYQI5L2-69" edge="1">
          <mxGeometry relative="1" as="geometry">
            <Array as="points">
              <mxPoint x="229" y="470" />
              <mxPoint x="368" y="470" />
            </Array>
          </mxGeometry>
        </mxCell>
        <mxCell id="rhOe6zKHTogy2aYQI5L2-66" value="reserve seat?" style="rhombus;whiteSpace=wrap;html=1;rounded=0;fillColor=#FAE5C7;strokeColor=#0F8B8D;fontColor=#143642;" parent="WIyWlLk6GJQsqaUBKTNV-1" vertex="1">
          <mxGeometry x="190" y="380" width="77.5" height="80" as="geometry" />
        </mxCell>
        <mxCell id="rhOe6zKHTogy2aYQI5L2-67" value="" style="edgeStyle=orthogonalEdgeStyle;rounded=0;orthogonalLoop=1;jettySize=auto;html=1;labelBackgroundColor=#DAD2D8;strokeColor=#A8201A;fontColor=#143642;" parent="WIyWlLk6GJQsqaUBKTNV-1" source="rhOe6zKHTogy2aYQI5L2-68" target="rhOe6zKHTogy2aYQI5L2-72" edge="1">
          <mxGeometry relative="1" as="geometry" />
        </mxCell>
        <mxCell id="rhOe6zKHTogy2aYQI5L2-68" value="select seat" style="rounded=0;whiteSpace=wrap;html=1;fillColor=#FAE5C7;strokeColor=#0F8B8D;fontColor=#143642;" parent="WIyWlLk6GJQsqaUBKTNV-1" vertex="1">
          <mxGeometry x="307.5" y="360" width="120" height="30" as="geometry" />
        </mxCell>
        <mxCell id="bRTcPIJZQBRut5WKRWDN-12" style="edgeStyle=orthogonalEdgeStyle;rounded=0;orthogonalLoop=1;jettySize=auto;html=1;entryX=1;entryY=0.5;entryDx=0;entryDy=0;labelBackgroundColor=#DAD2D8;strokeColor=#A8201A;fontColor=#143642;" edge="1" parent="WIyWlLk6GJQsqaUBKTNV-1" source="rhOe6zKHTogy2aYQI5L2-69" target="rhOe6zKHTogy2aYQI5L2-158">
          <mxGeometry relative="1" as="geometry">
            <mxPoint x="520" y="1120" as="targetPoint" />
            <Array as="points">
              <mxPoint x="520" y="430" />
              <mxPoint x="520" y="880" />
              <mxPoint x="168" y="880" />
            </Array>
          </mxGeometry>
        </mxCell>
        <mxCell id="rhOe6zKHTogy2aYQI5L2-69" value="check out" style="whiteSpace=wrap;html=1;rounded=0;fillColor=#FAE5C7;strokeColor=#0F8B8D;fontColor=#143642;" parent="WIyWlLk6GJQsqaUBKTNV-1" vertex="1">
          <mxGeometry x="325" y="420" width="85" height="20" as="geometry" />
        </mxCell>
        <mxCell id="rhOe6zKHTogy2aYQI5L2-70" value="no" style="text;strokeColor=none;fillColor=none;align=left;verticalAlign=middle;spacingLeft=4;spacingRight=4;overflow=hidden;points=[[0,0.5],[1,0.5]];portConstraint=eastwest;rotatable=0;fontColor=#143642;" parent="WIyWlLk6GJQsqaUBKTNV-1" vertex="1">
          <mxGeometry x="200" y="447.5" width="40" height="20" as="geometry" />
        </mxCell>
        <mxCell id="rhOe6zKHTogy2aYQI5L2-71" value="yes" style="text;strokeColor=none;fillColor=none;align=left;verticalAlign=middle;spacingLeft=4;spacingRight=4;overflow=hidden;points=[[0,0.5],[1,0.5]];portConstraint=eastwest;rotatable=0;fontColor=#143642;" parent="WIyWlLk6GJQsqaUBKTNV-1" vertex="1">
          <mxGeometry x="245" y="390" width="40" height="20" as="geometry" />
        </mxCell>
        <mxCell id="bRTcPIJZQBRut5WKRWDN-18" style="edgeStyle=orthogonalEdgeStyle;rounded=0;orthogonalLoop=1;jettySize=auto;html=1;entryX=0.839;entryY=1.133;entryDx=0;entryDy=0;entryPerimeter=0;labelBackgroundColor=#DAD2D8;strokeColor=#A8201A;fontColor=#143642;" edge="1" parent="WIyWlLk6GJQsqaUBKTNV-1" source="rhOe6zKHTogy2aYQI5L2-72" target="rhOe6zKHTogy2aYQI5L2-158">
          <mxGeometry relative="1" as="geometry">
            <mxPoint x="525" y="986" as="targetPoint" />
            <Array as="points">
              <mxPoint x="530" y="940" />
              <mxPoint x="151" y="940" />
            </Array>
          </mxGeometry>
        </mxCell>
        <mxCell id="rhOe6zKHTogy2aYQI5L2-72" value="check-out" style="rounded=0;whiteSpace=wrap;html=1;fillColor=#FAE5C7;strokeColor=#0F8B8D;fontColor=#143642;" parent="WIyWlLk6GJQsqaUBKTNV-1" vertex="1">
          <mxGeometry x="470" y="361.25" width="110" height="28.75" as="geometry" />
        </mxCell>
        <mxCell id="rhOe6zKHTogy2aYQI5L2-77" value="" style="edgeStyle=orthogonalEdgeStyle;rounded=0;orthogonalLoop=1;jettySize=auto;html=1;labelBackgroundColor=#DAD2D8;strokeColor=#A8201A;fontColor=#143642;" parent="WIyWlLk6GJQsqaUBKTNV-1" source="rhOe6zKHTogy2aYQI5L2-79" target="rhOe6zKHTogy2aYQI5L2-81" edge="1">
          <mxGeometry relative="1" as="geometry" />
        </mxCell>
        <mxCell id="rhOe6zKHTogy2aYQI5L2-78" value="" style="edgeStyle=orthogonalEdgeStyle;rounded=0;orthogonalLoop=1;jettySize=auto;html=1;labelBackgroundColor=#DAD2D8;strokeColor=#A8201A;fontColor=#143642;" parent="WIyWlLk6GJQsqaUBKTNV-1" source="rhOe6zKHTogy2aYQI5L2-79" target="rhOe6zKHTogy2aYQI5L2-82" edge="1">
          <mxGeometry relative="1" as="geometry" />
        </mxCell>
        <mxCell id="rhOe6zKHTogy2aYQI5L2-79" value="reserve seat?" style="rhombus;whiteSpace=wrap;html=1;rounded=0;fillColor=#FAE5C7;strokeColor=#0F8B8D;fontColor=#143642;" parent="WIyWlLk6GJQsqaUBKTNV-1" vertex="1">
          <mxGeometry y="487.5" width="80" height="90" as="geometry" />
        </mxCell>
        <mxCell id="rhOe6zKHTogy2aYQI5L2-80" value="" style="edgeStyle=orthogonalEdgeStyle;rounded=0;orthogonalLoop=1;jettySize=auto;html=1;labelBackgroundColor=#DAD2D8;strokeColor=#A8201A;fontColor=#143642;" parent="WIyWlLk6GJQsqaUBKTNV-1" source="rhOe6zKHTogy2aYQI5L2-81" target="rhOe6zKHTogy2aYQI5L2-85" edge="1">
          <mxGeometry relative="1" as="geometry" />
        </mxCell>
        <mxCell id="rhOe6zKHTogy2aYQI5L2-81" value="select seat" style="rounded=0;whiteSpace=wrap;html=1;fillColor=#FAE5C7;strokeColor=#0F8B8D;fontColor=#143642;" parent="WIyWlLk6GJQsqaUBKTNV-1" vertex="1">
          <mxGeometry x="125" y="517.5" width="120" height="30" as="geometry" />
        </mxCell>
        <mxCell id="bRTcPIJZQBRut5WKRWDN-8" style="edgeStyle=orthogonalEdgeStyle;rounded=0;orthogonalLoop=1;jettySize=auto;html=1;entryX=0.146;entryY=-0.133;entryDx=0;entryDy=0;entryPerimeter=0;labelBackgroundColor=#DAD2D8;strokeColor=#A8201A;fontColor=#143642;" edge="1" parent="WIyWlLk6GJQsqaUBKTNV-1" source="rhOe6zKHTogy2aYQI5L2-82" target="rhOe6zKHTogy2aYQI5L2-158">
          <mxGeometry relative="1" as="geometry">
            <mxPoint x="80" y="850" as="targetPoint" />
            <Array as="points">
              <mxPoint x="40" y="660" />
              <mxPoint x="80" y="660" />
            </Array>
          </mxGeometry>
        </mxCell>
        <mxCell id="rhOe6zKHTogy2aYQI5L2-82" value="check out" style="whiteSpace=wrap;html=1;rounded=0;fillColor=#FAE5C7;strokeColor=#0F8B8D;fontColor=#143642;" parent="WIyWlLk6GJQsqaUBKTNV-1" vertex="1">
          <mxGeometry y="620" width="80" height="20" as="geometry" />
        </mxCell>
        <mxCell id="rhOe6zKHTogy2aYQI5L2-83" value="no" style="text;strokeColor=none;fillColor=none;align=left;verticalAlign=middle;spacingLeft=4;spacingRight=4;overflow=hidden;points=[[0,0.5],[1,0.5]];portConstraint=eastwest;rotatable=0;fontColor=#143642;" parent="WIyWlLk6GJQsqaUBKTNV-1" vertex="1">
          <mxGeometry x="10" y="570" width="40" height="20" as="geometry" />
        </mxCell>
        <mxCell id="rhOe6zKHTogy2aYQI5L2-84" value="yes" style="text;strokeColor=none;fillColor=none;align=left;verticalAlign=middle;spacingLeft=4;spacingRight=4;overflow=hidden;points=[[0,0.5],[1,0.5]];portConstraint=eastwest;rotatable=0;fontColor=#143642;" parent="WIyWlLk6GJQsqaUBKTNV-1" vertex="1">
          <mxGeometry x="73.75" y="510" width="40" height="20" as="geometry" />
        </mxCell>
        <mxCell id="bRTcPIJZQBRut5WKRWDN-10" style="edgeStyle=orthogonalEdgeStyle;rounded=0;orthogonalLoop=1;jettySize=auto;html=1;exitX=0.5;exitY=1;exitDx=0;exitDy=0;entryX=0.317;entryY=-0.067;entryDx=0;entryDy=0;entryPerimeter=0;labelBackgroundColor=#DAD2D8;strokeColor=#A8201A;fontColor=#143642;" edge="1" parent="WIyWlLk6GJQsqaUBKTNV-1" source="rhOe6zKHTogy2aYQI5L2-85" target="rhOe6zKHTogy2aYQI5L2-158">
          <mxGeometry relative="1" as="geometry" />
        </mxCell>
        <mxCell id="rhOe6zKHTogy2aYQI5L2-85" value="check-out" style="rounded=0;whiteSpace=wrap;html=1;fillColor=#FAE5C7;strokeColor=#0F8B8D;fontColor=#143642;" parent="WIyWlLk6GJQsqaUBKTNV-1" vertex="1">
          <mxGeometry x="130" y="597.5" width="110" height="25" as="geometry" />
        </mxCell>
        <mxCell id="rhOe6zKHTogy2aYQI5L2-92" value="" style="edgeStyle=orthogonalEdgeStyle;rounded=0;orthogonalLoop=1;jettySize=auto;html=1;labelBackgroundColor=#DAD2D8;strokeColor=#A8201A;fontColor=#143642;" parent="WIyWlLk6GJQsqaUBKTNV-1" source="rhOe6zKHTogy2aYQI5L2-94" target="rhOe6zKHTogy2aYQI5L2-96" edge="1">
          <mxGeometry relative="1" as="geometry" />
        </mxCell>
        <mxCell id="rhOe6zKHTogy2aYQI5L2-93" value="" style="edgeStyle=orthogonalEdgeStyle;rounded=0;orthogonalLoop=1;jettySize=auto;html=1;labelBackgroundColor=#DAD2D8;strokeColor=#A8201A;fontColor=#143642;" parent="WIyWlLk6GJQsqaUBKTNV-1" source="rhOe6zKHTogy2aYQI5L2-94" target="rhOe6zKHTogy2aYQI5L2-97" edge="1">
          <mxGeometry relative="1" as="geometry" />
        </mxCell>
        <mxCell id="rhOe6zKHTogy2aYQI5L2-94" value="reserve seat?" style="rhombus;whiteSpace=wrap;html=1;rounded=0;fillColor=#FAE5C7;strokeColor=#0F8B8D;fontColor=#143642;" parent="WIyWlLk6GJQsqaUBKTNV-1" vertex="1">
          <mxGeometry x="710" y="830" width="80" height="90" as="geometry" />
        </mxCell>
        <mxCell id="rhOe6zKHTogy2aYQI5L2-95" value="" style="edgeStyle=orthogonalEdgeStyle;rounded=0;orthogonalLoop=1;jettySize=auto;html=1;labelBackgroundColor=#DAD2D8;strokeColor=#A8201A;fontColor=#143642;" parent="WIyWlLk6GJQsqaUBKTNV-1" source="rhOe6zKHTogy2aYQI5L2-96" target="rhOe6zKHTogy2aYQI5L2-100" edge="1">
          <mxGeometry relative="1" as="geometry" />
        </mxCell>
        <mxCell id="rhOe6zKHTogy2aYQI5L2-96" value="select seat" style="rounded=0;whiteSpace=wrap;html=1;fillColor=#FAE5C7;strokeColor=#0F8B8D;fontColor=#143642;" parent="WIyWlLk6GJQsqaUBKTNV-1" vertex="1">
          <mxGeometry x="560" y="860" width="120" height="30" as="geometry" />
        </mxCell>
        <mxCell id="rhOe6zKHTogy2aYQI5L2-156" value="" style="edgeStyle=orthogonalEdgeStyle;rounded=0;orthogonalLoop=1;jettySize=auto;html=1;labelBackgroundColor=#DAD2D8;strokeColor=#A8201A;fontColor=#143642;" parent="WIyWlLk6GJQsqaUBKTNV-1" source="rhOe6zKHTogy2aYQI5L2-97" edge="1">
          <mxGeometry relative="1" as="geometry">
            <mxPoint x="100" y="900" as="targetPoint" />
            <Array as="points">
              <mxPoint x="750" y="1020" />
              <mxPoint x="100" y="1020" />
            </Array>
          </mxGeometry>
        </mxCell>
        <mxCell id="rhOe6zKHTogy2aYQI5L2-97" value="check out" style="whiteSpace=wrap;html=1;rounded=0;fillColor=#FAE5C7;strokeColor=#0F8B8D;fontColor=#143642;" parent="WIyWlLk6GJQsqaUBKTNV-1" vertex="1">
          <mxGeometry x="705" y="970" width="90" height="20" as="geometry" />
        </mxCell>
        <mxCell id="rhOe6zKHTogy2aYQI5L2-98" value="no" style="text;strokeColor=none;fillColor=none;align=left;verticalAlign=middle;spacingLeft=4;spacingRight=4;overflow=hidden;points=[[0,0.5],[1,0.5]];portConstraint=eastwest;rotatable=0;fontColor=#143642;" parent="WIyWlLk6GJQsqaUBKTNV-1" vertex="1">
          <mxGeometry x="755" y="910" width="40" height="20" as="geometry" />
        </mxCell>
        <mxCell id="rhOe6zKHTogy2aYQI5L2-99" value="yes" style="text;strokeColor=none;fillColor=none;align=left;verticalAlign=middle;spacingLeft=4;spacingRight=4;overflow=hidden;points=[[0,0.5],[1,0.5]];portConstraint=eastwest;rotatable=0;fontColor=#143642;" parent="WIyWlLk6GJQsqaUBKTNV-1" vertex="1">
          <mxGeometry x="690" y="850" width="40" height="20" as="geometry" />
        </mxCell>
        <mxCell id="rhOe6zKHTogy2aYQI5L2-157" style="edgeStyle=orthogonalEdgeStyle;rounded=0;orthogonalLoop=1;jettySize=auto;html=1;labelBackgroundColor=#DAD2D8;strokeColor=#A8201A;fontColor=#143642;entryX=0.5;entryY=1;entryDx=0;entryDy=0;" parent="WIyWlLk6GJQsqaUBKTNV-1" source="rhOe6zKHTogy2aYQI5L2-100" target="rhOe6zKHTogy2aYQI5L2-158" edge="1">
          <mxGeometry relative="1" as="geometry">
            <Array as="points">
              <mxPoint x="620" y="1000" />
              <mxPoint x="116" y="1000" />
            </Array>
            <mxPoint x="120" y="950" as="targetPoint" />
          </mxGeometry>
        </mxCell>
        <mxCell id="rhOe6zKHTogy2aYQI5L2-100" value="check-out" style="rounded=0;whiteSpace=wrap;html=1;fillColor=#FAE5C7;strokeColor=#0F8B8D;fontColor=#143642;" parent="WIyWlLk6GJQsqaUBKTNV-1" vertex="1">
          <mxGeometry x="565" y="920" width="110" height="25" as="geometry" />
        </mxCell>
        <mxCell id="rhOe6zKHTogy2aYQI5L2-101" value="" style="edgeStyle=orthogonalEdgeStyle;rounded=0;orthogonalLoop=1;jettySize=auto;html=1;entryX=0.5;entryY=0;entryDx=0;entryDy=0;labelBackgroundColor=#DAD2D8;strokeColor=#A8201A;fontColor=#143642;" parent="WIyWlLk6GJQsqaUBKTNV-1" target="rhOe6zKHTogy2aYQI5L2-94" edge="1">
          <mxGeometry relative="1" as="geometry">
            <mxPoint x="750" y="800" as="sourcePoint" />
            <mxPoint x="750" y="840" as="targetPoint" />
          </mxGeometry>
        </mxCell>
        <mxCell id="eK6FQkArAcEVJqSyKkLl-0" value="departure airport&amp;nbsp;" style="rounded=0;whiteSpace=wrap;html=1;fillColor=#FAE5C7;strokeColor=#0F8B8D;fontColor=#143642;" parent="WIyWlLk6GJQsqaUBKTNV-1" vertex="1">
          <mxGeometry x="187.5" y="100" width="120" height="40" as="geometry" />
        </mxCell>
        <mxCell id="rhOe6zKHTogy2aYQI5L2-103" value="" style="endArrow=classic;html=1;rounded=0;entryX=0;entryY=0.5;entryDx=0;entryDy=0;labelBackgroundColor=#DAD2D8;strokeColor=#A8201A;fontColor=#143642;" parent="WIyWlLk6GJQsqaUBKTNV-1" target="eK6FQkArAcEVJqSyKkLl-0" edge="1">
          <mxGeometry width="50" height="50" relative="1" as="geometry">
            <mxPoint x="150" y="119.5" as="sourcePoint" />
            <mxPoint x="180" y="119.5" as="targetPoint" />
            <Array as="points">
              <mxPoint x="150" y="119.5" />
            </Array>
          </mxGeometry>
        </mxCell>
        <mxCell id="rhOe6zKHTogy2aYQI5L2-114" value="" style="edgeStyle=orthogonalEdgeStyle;rounded=0;orthogonalLoop=1;jettySize=auto;html=1;exitX=0;exitY=0.5;exitDx=0;exitDy=0;labelBackgroundColor=#DAD2D8;strokeColor=#A8201A;fontColor=#143642;" parent="WIyWlLk6GJQsqaUBKTNV-1" source="rhOe6zKHTogy2aYQI5L2-36" target="rhOe6zKHTogy2aYQI5L2-117" edge="1">
          <mxGeometry relative="1" as="geometry">
            <mxPoint x="295" y="585" as="sourcePoint" />
          </mxGeometry>
        </mxCell>
        <mxCell id="rhOe6zKHTogy2aYQI5L2-115" value="" style="edgeStyle=orthogonalEdgeStyle;rounded=0;orthogonalLoop=1;jettySize=auto;html=1;labelBackgroundColor=#DAD2D8;strokeColor=#A8201A;fontColor=#143642;" parent="WIyWlLk6GJQsqaUBKTNV-1" source="rhOe6zKHTogy2aYQI5L2-117" target="rhOe6zKHTogy2aYQI5L2-119" edge="1">
          <mxGeometry relative="1" as="geometry" />
        </mxCell>
        <mxCell id="rhOe6zKHTogy2aYQI5L2-116" value="" style="edgeStyle=orthogonalEdgeStyle;rounded=0;orthogonalLoop=1;jettySize=auto;html=1;labelBackgroundColor=#DAD2D8;strokeColor=#A8201A;fontColor=#143642;" parent="WIyWlLk6GJQsqaUBKTNV-1" source="rhOe6zKHTogy2aYQI5L2-117" target="rhOe6zKHTogy2aYQI5L2-120" edge="1">
          <mxGeometry relative="1" as="geometry" />
        </mxCell>
        <mxCell id="rhOe6zKHTogy2aYQI5L2-117" value="reserve seat?" style="rhombus;whiteSpace=wrap;html=1;rounded=0;fillColor=#FAE5C7;strokeColor=#0F8B8D;fontColor=#143642;" parent="WIyWlLk6GJQsqaUBKTNV-1" vertex="1">
          <mxGeometry x="387.5" y="486.255" width="80" height="80" as="geometry" />
        </mxCell>
        <mxCell id="rhOe6zKHTogy2aYQI5L2-127" value="" style="edgeStyle=orthogonalEdgeStyle;rounded=0;orthogonalLoop=1;jettySize=auto;html=1;labelBackgroundColor=#DAD2D8;strokeColor=#A8201A;fontColor=#143642;" parent="WIyWlLk6GJQsqaUBKTNV-1" source="rhOe6zKHTogy2aYQI5L2-119" target="rhOe6zKHTogy2aYQI5L2-126" edge="1">
          <mxGeometry relative="1" as="geometry" />
        </mxCell>
        <mxCell id="rhOe6zKHTogy2aYQI5L2-119" value="select seat" style="rounded=0;whiteSpace=wrap;html=1;fillColor=#FAE5C7;strokeColor=#0F8B8D;fontColor=#143642;" parent="WIyWlLk6GJQsqaUBKTNV-1" vertex="1">
          <mxGeometry x="367.5" y="595" width="120" height="30" as="geometry" />
        </mxCell>
        <mxCell id="rhOe6zKHTogy2aYQI5L2-144" style="edgeStyle=orthogonalEdgeStyle;rounded=0;orthogonalLoop=1;jettySize=auto;html=1;entryX=0.902;entryY=-0.1;entryDx=0;entryDy=0;labelBackgroundColor=#DAD2D8;strokeColor=#A8201A;fontColor=#143642;entryPerimeter=0;" parent="WIyWlLk6GJQsqaUBKTNV-1" source="rhOe6zKHTogy2aYQI5L2-120" target="rhOe6zKHTogy2aYQI5L2-158" edge="1">
          <mxGeometry relative="1" as="geometry">
            <mxPoint x="310" y="600" as="targetPoint" />
            <Array as="points">
              <mxPoint x="313" y="590" />
              <mxPoint x="245" y="590" />
            </Array>
          </mxGeometry>
        </mxCell>
        <mxCell id="rhOe6zKHTogy2aYQI5L2-120" value="check out" style="whiteSpace=wrap;html=1;rounded=0;fillColor=#FAE5C7;strokeColor=#0F8B8D;fontColor=#143642;" parent="WIyWlLk6GJQsqaUBKTNV-1" vertex="1">
          <mxGeometry x="267.5" y="516.25" width="90" height="23.75" as="geometry" />
        </mxCell>
        <mxCell id="rhOe6zKHTogy2aYQI5L2-121" value="no" style="text;strokeColor=none;fillColor=none;align=left;verticalAlign=middle;spacingLeft=4;spacingRight=4;overflow=hidden;points=[[0,0.5],[1,0.5]];portConstraint=eastwest;rotatable=0;fontColor=#143642;" parent="WIyWlLk6GJQsqaUBKTNV-1" vertex="1">
          <mxGeometry x="370" y="497.5" width="40" height="20" as="geometry" />
        </mxCell>
        <mxCell id="rhOe6zKHTogy2aYQI5L2-122" value="yes" style="text;strokeColor=none;fillColor=none;align=left;verticalAlign=middle;spacingLeft=4;spacingRight=4;overflow=hidden;points=[[0,0.5],[1,0.5]];portConstraint=eastwest;rotatable=0;fontColor=#143642;" parent="WIyWlLk6GJQsqaUBKTNV-1" vertex="1">
          <mxGeometry x="427.5" y="555" width="40" height="20" as="geometry" />
        </mxCell>
        <mxCell id="rhOe6zKHTogy2aYQI5L2-143" value="" style="edgeStyle=orthogonalEdgeStyle;rounded=0;orthogonalLoop=1;jettySize=auto;html=1;labelBackgroundColor=#DAD2D8;strokeColor=#A8201A;fontColor=#143642;entryX=0.678;entryY=-0.067;entryDx=0;entryDy=0;entryPerimeter=0;" parent="WIyWlLk6GJQsqaUBKTNV-1" source="rhOe6zKHTogy2aYQI5L2-126" target="rhOe6zKHTogy2aYQI5L2-158" edge="1">
          <mxGeometry relative="1" as="geometry">
            <mxPoint x="310" y="630" as="targetPoint" />
          </mxGeometry>
        </mxCell>
        <mxCell id="rhOe6zKHTogy2aYQI5L2-126" value="check-out" style="whiteSpace=wrap;html=1;rounded=0;fillColor=#FAE5C7;strokeColor=#0F8B8D;fontColor=#143642;" parent="WIyWlLk6GJQsqaUBKTNV-1" vertex="1">
          <mxGeometry x="367.5" y="655" width="120" height="30" as="geometry" />
        </mxCell>
        <mxCell id="rhOe6zKHTogy2aYQI5L2-145" value="" style="edgeStyle=orthogonalEdgeStyle;rounded=0;orthogonalLoop=1;jettySize=auto;html=1;labelBackgroundColor=#DAD2D8;strokeColor=#A8201A;fontColor=#143642;" parent="WIyWlLk6GJQsqaUBKTNV-1" source="rhOe6zKHTogy2aYQI5L2-147" target="rhOe6zKHTogy2aYQI5L2-149" edge="1">
          <mxGeometry relative="1" as="geometry" />
        </mxCell>
        <mxCell id="rhOe6zKHTogy2aYQI5L2-146" value="" style="edgeStyle=orthogonalEdgeStyle;rounded=0;orthogonalLoop=1;jettySize=auto;html=1;labelBackgroundColor=#DAD2D8;strokeColor=#A8201A;fontColor=#143642;" parent="WIyWlLk6GJQsqaUBKTNV-1" source="rhOe6zKHTogy2aYQI5L2-147" target="rhOe6zKHTogy2aYQI5L2-150" edge="1">
          <mxGeometry relative="1" as="geometry" />
        </mxCell>
        <mxCell id="rhOe6zKHTogy2aYQI5L2-147" value="reserve seat?" style="rhombus;whiteSpace=wrap;html=1;rounded=0;fillColor=#FAE5C7;strokeColor=#0F8B8D;fontColor=#143642;" parent="WIyWlLk6GJQsqaUBKTNV-1" vertex="1">
          <mxGeometry x="432.5" y="750" width="80" height="90" as="geometry" />
        </mxCell>
        <mxCell id="rhOe6zKHTogy2aYQI5L2-148" value="" style="edgeStyle=orthogonalEdgeStyle;rounded=0;orthogonalLoop=1;jettySize=auto;html=1;labelBackgroundColor=#DAD2D8;strokeColor=#A8201A;fontColor=#143642;" parent="WIyWlLk6GJQsqaUBKTNV-1" source="rhOe6zKHTogy2aYQI5L2-149" target="rhOe6zKHTogy2aYQI5L2-153" edge="1">
          <mxGeometry relative="1" as="geometry" />
        </mxCell>
        <mxCell id="rhOe6zKHTogy2aYQI5L2-149" value="select seat" style="rounded=0;whiteSpace=wrap;html=1;fillColor=#FAE5C7;strokeColor=#0F8B8D;fontColor=#143642;" parent="WIyWlLk6GJQsqaUBKTNV-1" vertex="1">
          <mxGeometry x="282.5" y="780" width="120" height="30" as="geometry" />
        </mxCell>
        <mxCell id="rhOe6zKHTogy2aYQI5L2-160" style="edgeStyle=orthogonalEdgeStyle;rounded=0;orthogonalLoop=1;jettySize=auto;html=1;exitX=0;exitY=0.5;exitDx=0;exitDy=0;labelBackgroundColor=#DAD2D8;strokeColor=#A8201A;fontColor=#143642;" parent="WIyWlLk6GJQsqaUBKTNV-1" source="rhOe6zKHTogy2aYQI5L2-150" edge="1">
          <mxGeometry relative="1" as="geometry">
            <mxPoint x="168" y="900" as="targetPoint" />
            <Array as="points">
              <mxPoint x="168" y="900" />
            </Array>
          </mxGeometry>
        </mxCell>
        <mxCell id="rhOe6zKHTogy2aYQI5L2-150" value="check out" style="whiteSpace=wrap;html=1;rounded=0;fillColor=#FAE5C7;strokeColor=#0F8B8D;fontColor=#143642;" parent="WIyWlLk6GJQsqaUBKTNV-1" vertex="1">
          <mxGeometry x="427.5" y="890" width="90" height="20" as="geometry" />
        </mxCell>
        <mxCell id="rhOe6zKHTogy2aYQI5L2-151" value="no" style="text;strokeColor=none;fillColor=none;align=left;verticalAlign=middle;spacingLeft=4;spacingRight=4;overflow=hidden;points=[[0,0.5],[1,0.5]];portConstraint=eastwest;rotatable=0;fontColor=#143642;" parent="WIyWlLk6GJQsqaUBKTNV-1" vertex="1">
          <mxGeometry x="477.5" y="830" width="40" height="20" as="geometry" />
        </mxCell>
        <mxCell id="rhOe6zKHTogy2aYQI5L2-152" value="yes" style="text;strokeColor=none;fillColor=none;align=left;verticalAlign=middle;spacingLeft=4;spacingRight=4;overflow=hidden;points=[[0,0.5],[1,0.5]];portConstraint=eastwest;rotatable=0;fontColor=#143642;" parent="WIyWlLk6GJQsqaUBKTNV-1" vertex="1">
          <mxGeometry x="412.5" y="770" width="40" height="20" as="geometry" />
        </mxCell>
        <mxCell id="rhOe6zKHTogy2aYQI5L2-159" style="edgeStyle=orthogonalEdgeStyle;rounded=0;orthogonalLoop=1;jettySize=auto;html=1;exitX=0.5;exitY=1;exitDx=0;exitDy=0;entryX=0.5;entryY=0;entryDx=0;entryDy=0;labelBackgroundColor=#DAD2D8;strokeColor=#A8201A;fontColor=#143642;" parent="WIyWlLk6GJQsqaUBKTNV-1" source="rhOe6zKHTogy2aYQI5L2-153" target="rhOe6zKHTogy2aYQI5L2-158" edge="1">
          <mxGeometry relative="1" as="geometry">
            <Array as="points">
              <mxPoint x="290" y="865" />
              <mxPoint x="290" y="850" />
              <mxPoint x="116" y="850" />
            </Array>
          </mxGeometry>
        </mxCell>
        <mxCell id="rhOe6zKHTogy2aYQI5L2-153" value="check-out" style="rounded=0;whiteSpace=wrap;html=1;fillColor=#FAE5C7;strokeColor=#0F8B8D;fontColor=#143642;" parent="WIyWlLk6GJQsqaUBKTNV-1" vertex="1">
          <mxGeometry x="287.5" y="840" width="110" height="25" as="geometry" />
        </mxCell>
        <mxCell id="rhOe6zKHTogy2aYQI5L2-154" value="" style="edgeStyle=orthogonalEdgeStyle;rounded=0;orthogonalLoop=1;jettySize=auto;html=1;entryX=0.5;entryY=0;entryDx=0;entryDy=0;exitX=0;exitY=0.5;exitDx=0;exitDy=0;labelBackgroundColor=#DAD2D8;strokeColor=#A8201A;fontColor=#143642;" parent="WIyWlLk6GJQsqaUBKTNV-1" source="rhOe6zKHTogy2aYQI5L2-42" target="rhOe6zKHTogy2aYQI5L2-147" edge="1">
          <mxGeometry relative="1" as="geometry">
            <mxPoint x="472.5" y="720" as="sourcePoint" />
            <mxPoint x="472.5" y="760" as="targetPoint" />
          </mxGeometry>
        </mxCell>
        <mxCell id="bRTcPIJZQBRut5WKRWDN-26" value="" style="edgeStyle=orthogonalEdgeStyle;rounded=0;orthogonalLoop=1;jettySize=auto;html=1;labelBackgroundColor=#DAD2D8;strokeColor=#A8201A;fontColor=#143642;" edge="1" parent="WIyWlLk6GJQsqaUBKTNV-1" source="rhOe6zKHTogy2aYQI5L2-158" target="bRTcPIJZQBRut5WKRWDN-25">
          <mxGeometry relative="1" as="geometry" />
        </mxCell>
        <mxCell id="rhOe6zKHTogy2aYQI5L2-158" value="payment" style="whiteSpace=wrap;html=1;rounded=0;fillColor=#FAE5C7;strokeColor=#0F8B8D;fontColor=#143642;" parent="WIyWlLk6GJQsqaUBKTNV-1" vertex="1">
          <mxGeometry x="65" y="870" width="102.5" height="30" as="geometry" />
        </mxCell>
        <mxCell id="bRTcPIJZQBRut5WKRWDN-22" style="edgeStyle=orthogonalEdgeStyle;rounded=0;orthogonalLoop=1;jettySize=auto;html=1;exitX=0.5;exitY=1;exitDx=0;exitDy=0;entryX=0.45;entryY=-0.05;entryDx=0;entryDy=0;entryPerimeter=0;labelBackgroundColor=#DAD2D8;strokeColor=#A8201A;fontColor=#143642;" edge="1" parent="WIyWlLk6GJQsqaUBKTNV-1" source="bRTcPIJZQBRut5WKRWDN-19" target="WIyWlLk6GJQsqaUBKTNV-3">
          <mxGeometry relative="1" as="geometry" />
        </mxCell>
        <mxCell id="bRTcPIJZQBRut5WKRWDN-19" value="" style="ellipse;shape=doubleEllipse;whiteSpace=wrap;html=1;aspect=fixed;fillColor=#FAE5C7;strokeColor=#0F8B8D;fontColor=#143642;" vertex="1" parent="WIyWlLk6GJQsqaUBKTNV-1">
          <mxGeometry x="60" y="10" width="50" height="50" as="geometry" />
        </mxCell>
        <mxCell id="bRTcPIJZQBRut5WKRWDN-25" value="" style="shape=waypoint;sketch=0;size=6;pointerEvents=1;points=[];fillColor=#FAE5C7;resizable=0;rotatable=0;perimeter=centerPerimeter;snapToPoint=1;strokeColor=#0F8B8D;fontColor=#143642;rounded=0;" vertex="1" parent="WIyWlLk6GJQsqaUBKTNV-1">
          <mxGeometry x="20" y="1070" width="40" height="40" as="geometry" />
        </mxCell>
      </root>
    </mxGraphModel>
  </diagram>
</mxfile>
